<svg xmlns="http://www.w3.org/2000/svg" width="24" height="24" viewBox="0 0 24 24">

<symbol id="book-heart" viewBox="0 0 24 24">
	<path fill="currentColor" d="M21 17v-1h1V2h-1V1H4v1H3v1H2v18h1v1h1v1h17v-1h1v-1h-1v-1h-1v-3zm-3 4H6v-1H5v-2h1v-1h12zm0-12h-1v1h-1v1h-1v1h-1v1h-1v1h-1v-1h-1v-1h-1v-1H9v-1H8V9H7V6h1V5h3v1h1v1h1V6h1V5h3v1h1z" />
</symbol>
<symbol id="plus" viewBox="0 0 24 24">
	<g fill="none" fill-rule="evenodd">
		<path d="m12.594 23.258l-.012.002l-.071.035l-.02.004l-.014-.004l-.071-.036q-.016-.004-.024.006l-.004.01l-.017.428l.005.02l.01.013l.104.074l.015.004l.012-.004l.104-.074l.012-.016l.004-.017l-.017-.427q-.004-.016-.016-.018m.264-.113l-.014.002l-.184.093l-.01.01l-.003.011l.018.43l.005.012l.008.008l.201.092q.019.005.029-.008l.004-.014l-.034-.614q-.005-.019-.02-.022m-.715.002a.02.02 0 0 0-.027.006l-.006.014l-.034.614q.001.018.017.024l.015-.002l.201-.093l.01-.008l.003-.011l.018-.43l-.003-.012l-.01-.01z" />
		<path fill="currentColor" d="M9 5a2 2 0 0 1 2-2h2a2 2 0 0 1 2 2v4h4a2 2 0 0 1 2 2v2a2 2 0 0 1-2 2h-4v4a2 2 0 0 1-2 2h-2a2 2 0 0 1-2-2v-4H5a2 2 0 0 1-2-2v-2a2 2 0 0 1 2-2h4z" />
	</g>
</symbol>

 <symbol id="lixeira" viewBox="0 0 24 24"><g fill="none"><path fill="currentColor" d="M9 7h9v11a2 2 0 0 1-2 2H8a2 2 0 0 1-2-2V7z"/><path stroke="currentColor" stroke-linecap="round" stroke-linejoin="round" stroke-width="2" d="M20 7h-2M4 7h2m0 0h12M6 7v11a2 2 0 0 0 2 2h8a2 2 0 0 0 2-2V7m-9-.5A2.5 2.5 0 0 1 11.5 4h1A2.5 2.5 0 0 1 15 6.5v0"/></g></symbol>
 

<symbol id="person" viewBox="0 0 24 24"><path fill="currentColor" d="M12 12q-1.65 0-2.825-1.175T8 8t1.175-2.825T12 4t2.825 1.175T16 8t-1.175 2.825T12 12m-8 6v-.8q0-.85.438-1.562T5.6 14.55q1.55-.775 3.15-1.162T12 13t3.25.388t3.15 1.162q.725.375 1.163 1.088T20 17.2v.8q0 .825-.587 1.413T18 20H6q-.825 0-1.412-.587T4 18"/></symbol>
<symbol id="sun-moon" viewBox="0 0 24 24"><path fill="currentColor" d="M7.5 2c-1.79 1.15-3 3.18-3 5.5s1.21 4.35 3.03 5.5C4.46 13 2 10.54 2 7.5A5.5 5.5 0 0 1 7.5 2m11.57 1.5l1.43 1.43L4.93 20.5L3.5 19.07zm-6.18 2.43L11.41 5L9.97 6l.42-1.7L9 3.24l1.75-.12l.58-1.65L12 3.1l1.73.03l-1.35 1.13zm-3.3 3.61l-1.16-.73l-1.12.78l.34-1.32l-1.09-.83l1.36-.09l.45-1.29l.51 1.27l1.36.03l-1.05.87zM19 13.5a5.5 5.5 0 0 1-5.5 5.5c-1.22 0-2.35-.4-3.26-1.07l7.69-7.69c.67.91 1.07 2.04 1.07 3.26m-4.4 6.58l2.77-1.15l-.24 3.35zm4.33-2.7l1.15-2.77l2.2 2.54zm1.15-4.96l-1.14-2.78l3.34.24zM9.63 18.93l2.77 1.15l-2.53 2.19z"/></symbol>





</svg>

 