<svg xmlns="http://www.w3.org/2000/svg" width="24" height="24" viewBox="0 0 24 24">

<symbol id="book-heart" viewBox="0 0 24 24">
	<path fill="currentColor" d="M21 17v-1h1V2h-1V1H4v1H3v1H2v18h1v1h1v1h17v-1h1v-1h-1v-1h-1v-3zm-3 4H6v-1H5v-2h1v-1h12zm0-12h-1v1h-1v1h-1v1h-1v1h-1v1h-1v-1h-1v-1h-1v-1H9v-1H8V9H7V6h1V5h3v1h1v1h1V6h1V5h3v1h1z" />
</symbol>
<symbol id="plus" viewBox="0 0 24 24">
	<g fill="none" fill-rule="evenodd">
		<path d="m12.594 23.258l-.012.002l-.071.035l-.02.004l-.014-.004l-.071-.036q-.016-.004-.024.006l-.004.01l-.017.428l.005.02l.01.013l.104.074l.015.004l.012-.004l.104-.074l.012-.016l.004-.017l-.017-.427q-.004-.016-.016-.018m.264-.113l-.014.002l-.184.093l-.01.01l-.003.011l.018.43l.005.012l.008.008l.201.092q.019.005.029-.008l.004-.014l-.034-.614q-.005-.019-.02-.022m-.715.002a.02.02 0 0 0-.027.006l-.006.014l-.034.614q.001.018.017.024l.015-.002l.201-.093l.01-.008l.003-.011l.018-.43l-.003-.012l-.01-.01z" />
		<path fill="currentColor" d="M9 5a2 2 0 0 1 2-2h2a2 2 0 0 1 2 2v4h4a2 2 0 0 1 2 2v2a2 2 0 0 1-2 2h-4v4a2 2 0 0 1-2 2h-2a2 2 0 0 1-2-2v-4H5a2 2 0 0 1-2-2v-2a2 2 0 0 1 2-2h4z" />
	</g>
</symbol>

 <symbol id="lixeira" viewBox="0 0 24 24"><g fill="none"><path fill="currentColor" d="M9 7h9v11a2 2 0 0 1-2 2H8a2 2 0 0 1-2-2V7z"/><path stroke="currentColor" stroke-linecap="round" stroke-linejoin="round" stroke-width="2" d="M20 7h-2M4 7h2m0 0h12M6 7v11a2 2 0 0 0 2 2h8a2 2 0 0 0 2-2V7m-9-.5A2.5 2.5 0 0 1 11.5 4h1A2.5 2.5 0 0 1 15 6.5v0"/></g></symbol>
 

</svg>

 